<?xml version="1.0" standalone="no"?>
<!DOCTYPE svg PUBLIC "-//W3C//DTD SVG 20010904//EN"
 "http://www.w3.org/TR/2001/REC-SVG-20010904/DTD/svg10.dtd">
<svg version="1.0" xmlns="http://www.w3.org/2000/svg"
 width="577.000000pt" height="577.000000pt" viewBox="0 0 577.000000 577.000000"
 preserveAspectRatio="xMidYMid meet">
<metadata>
Created by potrace 1.14, written by Peter Selinger 2001-2017
</metadata>
<g transform="translate(0.000000,577.000000) scale(0.100000,-0.100000)"
fill="#000000" stroke="none">
<path d="M4330 3960 l0 -1080 -90 0 -90 0 0 450 0 450 -180 0 -180 0 0 -450 0
-450 -90 0 -90 0 0 360 0 360 -180 0 -180 0 0 -360 0 -360 -90 0 -90 0 0 540
0 540 -180 0 -180 0 0 -540 0 -540 -90 0 -90 0 0 630 0 630 -180 0 -180 0 0
-630 0 -630 -90 0 -90 0 0 270 0 270 -180 0 -180 0 0 -270 0 -270 -90 0 -90 0
0 720 0 720 -180 0 -180 0 0 -720 0 -720 -90 0 -90 0 0 450 0 450 -180 0 -180
0 0 -450 0 -450 -90 0 -90 0 0 -270 0 -270 90 0 90 0 0 -90 0 -90 90 0 90 0 0
-90 0 -90 90 0 90 0 0 -90 0 -90 90 0 90 0 0 -90 0 -90 90 0 90 0 0 -90 0 -90
90 0 90 0 0 -90 0 -90 90 0 90 0 0 -90 0 -90 90 0 90 0 0 -90 0 -90 1080 0
1080 0 0 90 0 90 90 0 90 0 0 90 0 90 90 0 90 0 0 90 0 90 90 0 90 0 0 90 0
90 90 0 90 0 0 90 0 90 90 0 90 0 0 90 0 90 90 0 90 0 0 90 0 90 90 0 90 0 0
90 0 90 90 0 90 0 0 270 0 270 -90 0 -90 0 0 720 0 720 -180 0 -180 0 0 -720
0 -720 -90 0 -90 0 0 1080 0 1080 -180 0 -180 0 0 -1080z"/>
</g>
</svg>
